<?xml version="1.0" encoding="UTF-8" standalone="no"?>
<!-- Generator: Adobe Illustrator 17.1.0, SVG Export Plug-In . SVG Version: 6.00 Build 0)  -->

<svg
   xmlns:dc="http://purl.org/dc/elements/1.1/"
   xmlns:cc="http://creativecommons.org/ns#"
   xmlns:rdf="http://www.w3.org/1999/02/22-rdf-syntax-ns#"
   xmlns:svg="http://www.w3.org/2000/svg"
   xmlns="http://www.w3.org/2000/svg"
   xmlns:sodipodi="http://sodipodi.sourceforge.net/DTD/sodipodi-0.dtd"
   xmlns:inkscape="http://www.inkscape.org/namespaces/inkscape"
   version="1.1"
   id="Layer_1"
   x="0px"
   y="0px"
   viewBox="0 0 125.8 60.1"
   enable-background="new 0 0 125.8 60.1"
   xml:space="preserve"
   inkscape:version="0.48.2 r9819"
   width="100%"
   height="100%"
   sodipodi:docname="logo_white.svg"><metadata
   id="metadata49"><rdf:RDF><cc:Work
       rdf:about=""><dc:format>image/svg+xml</dc:format><dc:type
         rdf:resource="http://purl.org/dc/dcmitype/StillImage" /></cc:Work></rdf:RDF></metadata><defs
   id="defs47" /><sodipodi:namedview
   pagecolor="#ffffff"
   bordercolor="#666666"
   borderopacity="1"
   objecttolerance="10"
   gridtolerance="10"
   guidetolerance="10"
   inkscape:pageopacity="0"
   inkscape:pageshadow="2"
   inkscape:window-width="1042"
   inkscape:window-height="568"
   id="namedview45"
   showgrid="false"
   inkscape:zoom="3.5135135"
   inkscape:cx="9.8192308"
   inkscape:cy="30.05"
   inkscape:window-x="0"
   inkscape:window-y="22"
   inkscape:window-maximized="0"
   inkscape:current-layer="Layer_1" />
<g
   id="g3">
	<g
   id="g5">
		<g
   id="g7">
			<g
   id="g9">
				<g
   id="g11">
					<path
   d="M23,27.9V2.4h-5.5v10.1H5.5V2.4L0,2.3v25.6h5.5V17.2h12.1v10.8H23z"
   id="path13"
   style="fill:#ffffff;fill-opacity:1" />
				</g>
				<g
   id="g15">
					<path
   d="M65.8,34.3h-12 M33.6,46h-5.8v-6.9h5.8c2.2,0,3.8,1.3,3.8,3.4C37.4,44.7,35.7,46,33.6,46 M43.2,60l-5.8-9.8       c2.8-0.7,5.7-3.1,5.7-7.6c0-4.8-3.3-8.3-8.7-8.3h-12V60h5.5v-9.1h3.7L37,60H43.2z M13,60V39.1h7.5v-4.8H0v4.8h7.5V60H13z"
   id="path17"
   style="fill:#ffffff;fill-opacity:1" />
				</g>
				<g
   id="g19">
					<path
   d="M65.6,34.3h-12V60h5.5v-9.2h6.5c5.5,0,8.6-3.8,8.6-8.2C74.2,38.1,71.2,34.3,65.6,34.3z M64.8,46H59v-6.9h5.8       c2.2,0,3.8,1.3,3.8,3.5C68.6,44.7,67,46,64.8,46z"
   id="path21"
   style="fill:#ffffff;fill-opacity:1" />
					<rect
   x="45.1"
   y="34.3"
   width="5.5"
   height="25.6"
   id="rect23"
   style="fill:#ffffff;fill-opacity:1" />
				</g>
			</g>
		</g>
	</g>
	<polygon
   points="119.5,27.9 119.5,23.2 106.9,23.2 106.9,17.4 119.2,17.4 119.2,12.6 106.9,12.6 106.9,7.2 119.5,7.2 119.5,2.4    101.4,2.4 101.4,27.9  "
   id="polygon25"
   style="fill:#ffffff;fill-opacity:1" />
	<path
   d="M89.4,28.4c6.9,0,10.3-3.5,10.3-8.2c0-9.6-14.7-6.9-14.7-10.9c0-1.5,1.3-2.5,3.6-2.5c2.6,0,5.4,0.9,7.5,2.8l3-4.1   C96.6,3.2,93.2,2,89.1,2c-6,0-9.7,3.5-9.7,7.8c0,9.6,14.8,6.5,14.8,11c0,1.5-1.4,2.8-4.5,2.8c-3.5,0-6.3-1.6-8.1-3.5l-3,4.3   C80.9,26.7,84.5,28.4,89.4,28.4"
   id="path27"
   style="fill:#ffffff;fill-opacity:1" />
	<path
   d="M65.7,28.4c7.8,0,11.6-4.4,11.6-10.7V2.4h-5.6v15.2c0,3.6-2,6-6,6c-4,0-6-2.5-6-6V2.4h-5.5v15.4   C54.1,24,57.9,28.4,65.7,28.4"
   id="path29"
   style="fill:#ffffff;fill-opacity:1" />
	<g
   id="g31">
		<g
   id="g33">
			<g
   id="g35">
				<path
   fill="#16BECF"
   d="M48,3.9C45.5,1.4,42.1,0,38.5,0s-7,1.4-9.5,4s-3.9,6-3.9,9.5c0,3.6,1.4,7,4,9.5l9.7,9.4l9.4-9.6      c2.5-2.6,3.9-5.9,3.9-9.5C52,9.8,50.6,6.5,48,3.9"
   id="path37" />
			</g>
			<path
   fill="#FFFFFF"
   d="M38.5,4.2c-5.2,0-9.4,4.2-9.3,9.4c0,5.1,4.2,9.3,9.4,9.3l0,0c2.5,0,4.9-1,6.6-2.8     c1.8-1.8,2.7-4.1,2.7-6.6C47.9,8.4,43.7,4.2,38.5,4.2z M38.6,22.6L38.6,22.6L38.6,22.6L38.6,22.6z"
   id="path39" />
		</g>
		<g
   id="g41">
			<polygon
   fill="#16BECF"
   points="46.2,13 38.7,5.6 31.2,13 33.6,13 33.6,19 43.8,19 43.8,13    "
   id="polygon43" />
		</g>
	</g>
</g>
</svg>