<?xml version="1.0" encoding="utf-8"?>
<!-- Generator: Adobe Illustrator 18.0.0, SVG Export Plug-In . SVG Version: 6.00 Build 0)  -->
<!DOCTYPE svg PUBLIC "-//W3C//DTD SVG 1.1//EN" "http://www.w3.org/Graphics/SVG/1.1/DTD/svg11.dtd">
<svg version="1.1" id="Layer_1" xmlns="http://www.w3.org/2000/svg" xmlns:xlink="http://www.w3.org/1999/xlink" x="0px" y="0px"
	 viewBox="-7.7 4.5 247.3 75" enable-background="new -7.7 4.5 247.3 75" xml:space="preserve">
<g id="BKG">
</g>
<g>
	<polygon fill="#414042" points="74,58.2 74.8,58.2 64,45.2 56.3,45.2 51.3,48.8 48.4,45.2 40.6,45.2 2.3,73.1 3.1,73.1 44.2,47.8 
		48.4,50.9 18,73.1 18.7,73.1 51.3,53 58.4,58.2 59.2,58.2 53.7,51.6 59.8,47.8 	"/>
	<polygon fill="#EEB111" points="105.8,12.9 62.2,39.3 58.2,36.1 91,12.9 90.2,12.9 55.4,34 47.1,27.4 46.3,27.4 52.8,35.6 
		46.6,39.3 31.4,27.4 30.7,27.4 42.2,42 49.9,42 55,38.4 57.8,42 65.6,42 106.6,12.9 	"/>
	<polygon fill="#414042" points="145.1,51 139.5,51 142.8,40.9 134.7,40.9 135.6,38.3 156.3,38.3 155.4,40.9 148.5,40.9 	"/>
	<path fill="#414042" d="M198.5,41.5c0.2-0.5,0-0.7-0.8-0.7h-8.9L185.5,51h-5.8l4.3-12.7h16.9c2.6,0,3.8,1.6,3.3,3.1l-1.6,4.5
		c-0.3,0.7-1,1.3-2.1,1.3H197l5,3.8h-7l-6.8-6.3l8.2,0c0.8,0,1.1-0.4,1.2-0.6C197.7,44,198.5,41.5,198.5,41.5"/>
	<path fill="#414042" d="M118,44.9l8.7,0l1.2-3.4c0.2-0.5,0-0.7-0.8-0.7h-8.7L115,51h-5.3l4.3-12.7h16c2.7,0,3.9,1.5,3.4,3.3
		l-1.6,4.6c-0.3,0.7-1.2,1.2-2.1,1.2h-5.3L118,44.9z"/>
	<path fill="#414042" d="M103.2,41.5l-2.4,6.9h-10c-0.7,0-0.9-0.3-0.8-0.7l2.6-6.9h9.8l0,0C103.2,40.8,103.4,41,103.2,41.5
		 M105.2,38.2H90.5c-1.4,0-3.2,1.1-3.6,2.5l-2.4,6.9C84.1,49.5,85.4,51,88,51h14.8c1.4,0,3.2-1.1,3.6-2.5l2.3-6.9
		C109.2,39.7,107.9,38.2,105.2,38.2"/>
	<path fill="#414042" d="M173.9,41.5l-2.4,6.9h-10c-0.7,0-0.9-0.3-0.8-0.7l2.6-6.9h9.8l0,0C173.8,40.8,174,41,173.9,41.5
		 M175.9,38.2h-14.7c-1.4,0-3.2,1.1-3.6,2.5l-2.4,6.9c-0.5,1.7,0.8,3.3,3.5,3.3h14.8c1.4,0,3.2-1.1,3.6-2.5l2.3-6.9
		C179.9,39.7,178.6,38.2,175.9,38.2"/>
	<path fill="#414042" d="M224.1,41.5l-2.4,6.9h-10c-0.7,0-0.9-0.3-0.8-0.7l2.6-6.9h9.8l0,0C224,40.8,224.2,41,224.1,41.5
		 M226.1,38.2h-14.7c-1.4,0-3.2,1.1-3.6,2.5l-2.4,6.9c-0.5,1.7,0.8,3.3,3.5,3.3h14.8c1.4,0,3.2-1.1,3.6-2.5l2.3-6.9
		C230,39.7,228.7,38.2,226.1,38.2"/>
</g>
</svg>
